#!OML:ASF E:/inclinewalkrobotboard/Project1/Captureday1/Session1/subject1.ASF
:FULLY-SPECIFIED
:DEGREES
351
root 0 0 0 -5.384458855638442 -1.4973630612299083 -0.35655344342775486
lowerback 12.748606702333202 0.17290808666512936 -0.0775934887028169
upperback 1.698599668589809 0.38268954555825896 1.4252668452949342
thorax -5.344369576455637 0.2670461147865022 1.3927122627783088
lowerneck -17.690697791015715 -3.185371118100779 -2.0312256014604335
upperneck 17.99152177359192 -3.750272317346988 -0.040633959655349994
head 8.435237324795688 -1.929663661757206 -0.13745689036152786
rclavicle 3.010083535540932E-15 1.5448442398023914E-15
rhumerus -49.39757327150204 -18.699379343607063 -75.10264395364663
rradius 23.641048316682614
rwrist -2.6954579205008073
rhand -21.434094984245974 27.489662614831865
rfingers 7.125020000000054
rthumb 4.9288423109605795 -2.765766085619049
lclavicle -8.204369309373458E-16 -7.08859259712924E-15
lhumerus -36.26429450832835 -1.5473897805626766 85.04830475557105
lradius 28.92854023632469
lwrist 10.15610236968811
lhand -30.673731221581708 24.78663534973886
lfingers 7.125020000000039
lthumb -3.9276997354019727 55.27696803576584
rfemur -27.01956610443544 26.435192354621705 40.60330147698788
rtibia 24.021585834956138
rfoot -9.019636237210479 -12.010250768641054
rtoes -2.61951461654359
lfemur -11.763271578051913 1.942099981773655 -16.626614215490235
ltibia 60.436510874204615
lfoot 5.10674824725152 -15.205218406215
ltoes -15.560101612838585
352
root 0 0 0 -6.777644364983786 -2.679610267268073 -2.0519624649047072
lowerback 13.318225461995471 0.754605771254503 1.8684311820964365
upperback 2.011256111530159 1.4067331817486308 1.5614585945224433
thorax -5.295906199904393 0.7589629021475729 0.2708812928068953
lowerneck -17.773257246640572 -3.386863938715968 -1.9041729095270046
upperneck 18.198315549266532 -4.1170020409881545 0.25727599212316
head 8.559864149005133 -2.0720911251884324 -0.12855545637360022
rclavicle 2.9131006179812827E-15 1.3488542364834786E-15
rhumerus -48.95468045692877 -18.533784362345706 -75.15035226999478
rradius 23.85822064914968
rwrist -2.818149382885519
rhand -21.548871856612465 27.570487507895322
rfingers 7.125020000000055
rthumb 4.821269566551866 -2.697060477921747
lclavicle -1.5809317804007943E-15 -7.146205563322556E-15
lhumerus -36.86226823072687 -1.18883152020992 85.20762795365624
lradius 28.6064288158879
lwrist 9.686900667821579
lhand -30.794022684917227 24.43000788533928
lfingers 7.125020000000038
lthumb -4.040746267140367 54.943123006679734
rfemur -26.41399762656326 25.58874783306598 39.982219181486556
rtibia 24.394890287624833
rfoot -9.215395003944737 -11.745381506387588
rtoes -2.6169381873949753
lfemur -13.316768333648895 1.6447804375858777 -16.16629654891265
ltibia 59.70999986242802
lfoot 5.1241412779918 -14.77402109556851
ltoes -15.400596169869077
353
root 0 0 0 -7.941140760219902 -4.551827108993862 -3.744246083359447
lowerback 13.653151844698485 1.370568358328681 3.736060555427237
upperback 2.268456100891539 2.4327595727016544 1.6212445651506422
thorax -5.194869930201422 1.238506194416768 -0.8646226648729254
lowerneck -17.67700828141507 -3.598338239613092 -1.781736859797986
upperneck 18.586232906636138 -4.54221974734103 0.608491969870788
head 8.719917954604949 -2.231361473162675 -0.09533488855051586
rclavicle 2.901933959628704E-15 1.2120189160888082E-15
rhumerus -48.37643781513524 -18.31828131803787 -75.28797949951571
rradius 24.16940787364944
rwrist -3.0069967226340175
rhand -21.690638663872864 27.676629622969692
rfingers 7.125020000000057
rthumb 4.6896091296480265 -2.6042764462633343
lclavicle -2.7224350687355217E-15 -7.06094464435225E-15
lhumerus -37.86191520401757 -0.5571335682719409 85.4738578705819
lradius 28.052065759058692
lwrist 8.800667934743263
lhand -30.999059841629865 23.7975524222469
lfingers 7.125020000000038
lthumb -4.233529660473874 54.349853623141314
rfemur -25.414697152122017 24.088360322297746 38.93627877702487
rtibia 25.063885054251454
rfoot -9.560134739419782 -11.281756251563818
rtoes -2.711595945454537
lfemur -15.602158650697206 1.1838130440449621 -15.60815218530585
ltibia 58.238938393704885
lfoot 5.003586519601786 -13.923693442945986
ltoes -15.113121464321916
354
root 0 0 0 -8.152166495317417 -6.508092766481543 -4.72839999503363
lowerback 13.674176599399274 1.7470694494366286 4.7208428391570925
upperback 2.304520481034702 3.001348376149879 1.5769299452487302
thorax -5.182592058786463 1.4918102860071807 -1.532715292775392
lowerneck -17.390987380802116 -3.712422277270326 -1.7016497853579058
upperneck 18.951199532244864 -4.810059886161081 0.7939080992093266
head 8.810190108246868 -2.3303131792857825 -0.06738335377007787
rclavicle 2.9818382529015526E-15 1.0963357176467382E-15
rhumerus -47.78496416340785 -18.09126995294864 -75.32570241206267
rradius 24.57781856615969
rwrist -3.159743817255862
rhand -21.87190801794718 27.838771042275376
rfingers 7.125020000000059
rthumb 4.521470292653618 -2.4572058803582237
lclavicle -3.8825374753779305E-15 -6.735469722016001E-15
lhumerus -39.24716853099089 0.31845996572152035 85.79937579263287
lradius 27.433899952607586
lwrist 7.679886791860145
lhand -31.209078625709274 23.04791607776812
lfingers 7.1250200000000365
lthumb -4.432068890180684 53.63808085591446
rfemur -24.001179387888143 21.760869170488192 37.41620191829743
rtibia 26.104573380903915
rfoot -10.079158414542938 -10.567556643814973
rtoes -2.9178227633618405
lfemur -18.07387728649949 0.5027756820501725 -15.320386246870854
ltibia 55.60003407652094
lfoot 4.4793900588806 -12.462605480358462
ltoes -14.60659776571775
355
root 0 0 0 -7.931645659894954 -7.726849824418318 -5.220050606423603
lowerback 13.647228675864191 1.9196238322330068 5.155077406604339
upperback 2.2407294795838713 3.2416590807304324 1.5286745926791672
thorax -5.244920301506207 1.5916273997943322 -1.8521641191681875
lowerneck -17.18813464167759 -3.7601799507899845 -1.661328852894712
upperneck 19.20134080599343 -4.938337944178115 0.856253815195319
head 8.864786838828433 -2.3779675803254827 -0.05714433329240287
rclavicle 3.10102371441926E-15 9.510825574346545E-16
rhumerus -47.323658325618794 -17.909669161921624 -75.06912498063207
rradius 25.00891856694112
rwrist -3.144037969511867
rhand -22.08843197784805 28.054530785939193
rfingers 7.1250200000000605
rthumb 4.318918318105332 -2.259496995773338
lclavicle -4.529333849178771E-15 -6.360095754642318E-15
lhumerus -40.58427856506903 1.1448887640289627 86.01478290020351
lradius 27.032239016568646
lwrist 6.723758256077591
lhand -31.371352033370993 22.466290403026136
lfingers 7.125020000000035
lthumb -4.5866333876246514 53.08137793432545
rfemur -22.597947965898697 19.19904231513675 35.79217198450834
rtibia 27.310682216371305
rfoot -10.60157116999837 -9.873040272597411
rtoes -3.1901190116337084
lfemur -19.39651524713028 -0.5000902176071023 -15.80451958979083
ltibia 51.262167402935106
lfoot 3.203065105321688 -10.30775459560649
ltoes -13.837778788361048
